<svg
  xmlns="http://www.w3.org/2000/svg"
  width="24"
  height="24"
  viewBox="0 0 24 24"
>
  <path
    d="M12,5.5C7.47,5.5 3.5,9.47 3.5,14C3.5,15.91 4.36,17.67 5.69,19.03C4.17,17.47 3,15.31 3,13C3,8.03 7.03,3.5 12,3.5C15.39,3.5 18.42,5.69 20.03,8.65C21.31,6.27 20.42,3.5 18,2C16.42,0.9 14.47,0.5 12,0.5C5.92,0.5 0.5,5.92 0.5,12C0.5,18.08 5.92,23.5 12,23.5C17.58,23.5 22.37,19.17 23.39,13.81C23.65,12.84 23.65,11.16 23.39,10.19C22.37,4.83 17.58,0.5 12,0.5M12,20.5C8.4,20.5 5.5,17.6 5.5,14C5.5,10.4 8.4,7.5 12,7.5C15.6,7.5 18.5,10.4 18.5,14C18.5,17.6 15.6,20.5 12,20.5M12,10C10.34,10 9,11.34 9,13C9,14.66 10.34,16 12,16C13.66,16 15,14.66 15,13C15,11.34 13.66,10 12,10Z"
  />
</svg>